<svg width="38" height="41" viewBox="0 0 38 41" fill="none" xmlns="http://www.w3.org/2000/svg">
<path d="M11.2775 -8.31063e-06C5.62724 -8.31063e-06 0.903897 3.40499 0.548586 7.88009C-0.0569954 15.5073 -0.53521 26.5611 1.24294 31.0943C4.08177 38.3315 6.92583 23.2522 10.3911 21.1567C10.719 18.708 18.1491 13.273 28.526 20.4126C28.2077 21.9691 33.171 34.5841 36.5141 31.0943C38.6911 28.8218 38.033 16.3245 37.3089 7.88196C36.925 3.40582 32.1989 -8.31063e-06 26.5454 -8.31063e-06L11.2775 -8.31063e-06Z" fill="url(#paint0_radial_18_194)"/>
<path fill-rule="evenodd" clip-rule="evenodd" d="M27.8065 19.9344C28.0447 20.0871 28.2845 20.2464 28.526 20.4126C28.2077 21.9691 33.171 34.5841 36.5141 31.0943C38.6911 28.8218 38.033 16.3245 37.3089 7.88196C36.925 3.40582 32.1989 -8.31063e-06 26.5454 -8.31063e-06L11.2775 -8.31063e-06C5.62724 -8.31063e-06 0.903897 3.40499 0.548586 7.88009C-0.0569956 15.5073 -0.53521 26.5611 1.24294 31.0943C2.96952 35.4959 4.69802 31.6426 6.56706 27.476C7.72933 24.8849 8.94594 22.1728 10.2502 21.2492C10.2693 21.2357 10.2885 21.2226 10.3076 21.2098C10.3354 21.1913 10.3633 21.1736 10.3911 21.1567C10.3911 21.1567 10.3911 21.1567 10.3911 21.1567C10.7114 18.765 17.8072 13.5243 27.8065 19.9344ZM10.0484 21.0037C10.1895 20.3277 10.7583 19.5257 11.6409 18.8016C12.5863 18.026 13.923 17.3128 15.5836 16.9114C18.9254 16.1037 23.5044 16.5734 28.7656 20.1933L28.9197 20.2993L28.887 20.4591C28.8746 20.5201 28.872 20.6317 28.8909 20.8019C28.9093 20.9672 28.9459 21.1715 29.0006 21.4096C29.1098 21.8855 29.2877 22.4833 29.5221 23.1511C29.9909 24.4868 30.6803 26.0872 31.4817 27.5287C32.2886 28.9802 33.1893 30.2336 34.0655 30.9081C34.5046 31.2461 34.8895 31.4011 35.2122 31.4111C35.51 31.4202 35.8507 31.3072 36.223 30.9186C36.4509 30.6806 36.664 30.2814 36.8491 29.7175C37.0321 29.1599 37.1797 28.467 37.2951 27.663C37.526 26.0553 37.6251 24.0284 37.6336 21.801C37.6507 17.3476 37.3058 12.1207 36.944 7.90167C36.5735 3.58235 32.0123 0.290252 26.5454 0.290252L11.2775 0.290252C5.81357 0.290252 1.25637 3.58144 0.913622 7.89834C0.611068 11.709 0.340662 16.3719 0.367618 20.646C0.394658 24.9328 0.721481 28.7883 1.59218 31.008C1.94529 31.9082 2.27886 32.4019 2.56457 32.6235C2.69851 32.7273 2.79672 32.7518 2.86202 32.7543C2.92979 32.7569 3.02708 32.7382 3.16316 32.6572C3.45083 32.4859 3.78178 32.1142 4.14582 31.5505C4.50268 30.9979 4.86688 30.3009 5.24025 29.522C5.55719 28.8609 5.88403 28.1326 6.21692 27.3908C6.65673 26.4108 7.10709 25.4073 7.55908 24.5041C7.96046 23.702 8.37341 22.9565 8.79908 22.3423C9.18555 21.7847 9.59938 21.3098 10.0484 21.0037Z" fill="black"/>
<g filter="url(#filter0_i_18_194)">
<path d="M28.6939 32.7388C28.6939 37.3013 24.3538 41 19 41C13.6462 41 9.30615 37.3013 9.30615 32.7388C9.30615 28.1763 13.6462 24.4776 19 24.4776C24.3538 24.4776 28.6939 28.1763 28.6939 32.7388Z" fill="#E29016"/>
</g>
<defs>
<filter id="filter0_i_18_194" x="9.30615" y="24.4776" width="19.3877" height="20.5224" filterUnits="userSpaceOnUse" color-interpolation-filters="sRGB">
<feFlood flood-opacity="0" result="BackgroundImageFix"/>
<feBlend mode="normal" in="SourceGraphic" in2="BackgroundImageFix" result="shape"/>
<feColorMatrix in="SourceAlpha" type="matrix" values="0 0 0 0 0 0 0 0 0 0 0 0 0 0 0 0 0 0 127 0" result="hardAlpha"/>
<feOffset dy="4"/>
<feGaussianBlur stdDeviation="2.3"/>
<feComposite in2="hardAlpha" operator="arithmetic" k2="-1" k3="1"/>
<feColorMatrix type="matrix" values="0 0 0 0 0.886275 0 0 0 0 0.262745 0 0 0 0 0.0862745 0 0 0 0.71 0"/>
<feBlend mode="normal" in2="shape" result="effect1_innerShadow_18_194"/>
</filter>
<radialGradient id="paint0_radial_18_194" cx="0" cy="0" r="1" gradientUnits="userSpaceOnUse" gradientTransform="translate(19 16.5224) rotate(-90) scale(16.5224 19)">
<stop stop-color="#E24316"/>
<stop offset="1" stop-color="#E24316" stop-opacity="0"/>
</radialGradient>
</defs>
</svg>
